<svg width="971" height="133" viewBox="0 0 971 133" fill="none" xmlns="http://www.w3.org/2000/svg">
<path d="M320.63 107.4V129.24H290.37V4.42999H348.78C376.91 4.42999 391.08 21.76 391.08 47.43C391.08 73.69 376.36 91.69 347.49 91.69H320.63V107.4ZM345.1 65.34C357.02 65.34 360.77 58.46 360.77 47.84C360.77 37.78 357.02 30.84 345.1 30.84H320.63V65.31L345.1 65.34Z" fill="#233B8E"/>
<path d="M947.59 45.3101C939.72 39.0401 929.59 35.3101 915.47 35.3101C888.47 35.3101 868.24 54.9501 868.24 83.6801C868.24 112.59 888.6 132.05 912.8 132.05C924.62 132.05 934.08 128.41 941.17 122.05V129.31H970.26V45.3101H947.59ZM918.8 107.31C906.07 107.31 896.8 97.8601 896.8 83.6801C896.8 69.6801 906.08 60.0401 918.8 60.0401C930.61 60.0401 941.17 69.6701 941.17 83.6801C941.17 97.8701 930.61 107.32 918.78 107.32L918.8 107.31Z" fill="#233B8E"/>
<path d="M678.51 72.16V129.36H649.51V78.36C649.51 67.97 642.76 61.36 634.21 61.36C623.45 61.36 616.34 69.21 616.34 84.52V129.34H587.21V78.34C587.21 67.95 580.47 61.34 571.73 61.34C561.16 61.34 554.23 69.19 554.23 84.5V129.32H525.08V45.17H549.57C555.76 38.25 566.14 35.17 578 35.17C590.75 35.17 601.68 40.63 607.88 50.66C615.16 41.17 626.97 35.17 641.18 35.17C660.68 35.16 678.51 49.92 678.51 72.16Z" fill="#233B8E"/>
<path d="M786.78 91.13H719.68C722.05 102.08 729.52 108.82 739.37 108.82C746.12 108.82 753.96 107.18 758.89 98.24L784.78 103.5C776.94 122.83 760.34 132.13 739.38 132.13C712.94 132.13 691.06 112.62 691.06 83.63C691.06 54.81 712.94 35.12 739.56 35.12C765.45 35.12 786.23 53.73 786.78 83.63V91.13ZM720.23 73.27H757.97C755.23 63.42 747.97 58.86 739.56 58.86C735.207 58.8302 730.964 60.2212 727.474 62.8218C723.983 65.4224 721.437 69.0907 720.22 73.27H720.23Z" fill="#233B8E"/>
<path d="M474.78 129.36V45.2H503.98V129.36H474.78Z" fill="#233B8E"/>
<path d="M506.86 17.5C506.86 27.14 499.5 34.31 489.3 34.31C479.1 34.31 471.91 27.14 471.91 17.5C471.91 12.8587 473.754 8.40753 477.036 5.12564C480.318 1.84375 484.769 0 489.41 0C494.051 0 498.503 1.84375 501.784 5.12564C505.066 8.40753 506.91 12.8587 506.91 17.5H506.86Z" fill="#233B8E"/>
<path d="M426.78 44.8601H402.21V129.4H431.49V86.7601C431.49 76.3201 432.63 72.3201 437.25 67.3501C440.715 63.659 445.465 61.4395 450.52 61.1501C455.21 61.0601 457.52 61.4801 461.52 63.5401V35.2501C459.359 34.9559 457.181 34.8089 455 34.8101C441.44 34.8101 433.78 37.5501 426.78 44.8601Z" fill="#233B8E"/>
<path d="M825.29 44.8601H800.67V129.4H829.96V86.7601C829.96 76.3201 831.1 72.3201 835.72 67.3501C839.183 63.6613 843.929 61.442 848.98 61.1501C853.67 61.0601 855.98 61.4801 859.98 63.5401V35.2501C857.823 34.9559 855.647 34.8089 853.47 34.8101C839.9 34.8101 832.22 37.5501 825.29 44.8601Z" fill="#233B8E"/>
<path d="M217.49 81.14L214.1 80.07C202.92 76.44 193.26 73.32 193.26 61.53C193.26 46.87 208.61 45.29 215.26 45.29C222.36 45.16 231.35 47.47 238.26 51.1L239.97 52V44L239.32 43.68C231.821 40.129 223.617 38.3205 215.32 38.39C197.32 38.39 185.69 47.48 185.69 61.55C185.69 78.07 199.52 82.62 211.69 86.64C213.39 87.22 215.04 87.76 216.69 88.29C228.22 92.05 236.54 94.77 236.54 106.17C236.54 116.72 227.6 123.02 212.61 123.02C203.065 123.009 193.668 120.649 185.25 116.15L183.5 115.15V123.24L184.14 123.57C192.14 127.63 202.83 130.06 212.86 130.06C232.42 130.06 244.1 121.06 244.1 106.01C244.08 89.5 231.78 85.62 217.49 81.14Z" fill="#233B8E"/>
<path d="M145.59 102.5C152.153 99.3026 157.437 93.9745 160.581 87.3859C163.724 80.7973 164.541 73.3375 162.898 66.2248C161.254 59.1121 157.247 52.7668 151.532 48.2252C145.817 43.6836 138.73 41.2141 131.43 41.22H103.54V44.73V129.24H110.54V105.79H131.42C133.944 105.78 136.459 105.472 138.91 104.87C143.554 113.79 149.469 121.989 156.47 129.21H166.47H166.52C158.049 121.586 150.967 112.549 145.59 102.5V102.5ZM110.59 98.8V48.21H131.46C134.78 48.21 138.067 48.8639 141.134 50.1343C144.201 51.4048 146.988 53.2669 149.336 55.6143C151.683 57.9618 153.545 60.7486 154.816 63.8157C156.086 66.8829 156.74 70.1702 156.74 73.49C156.74 76.8098 156.086 80.0971 154.816 83.1642C153.545 86.2313 151.683 89.0182 149.336 91.3656C146.988 93.7131 144.201 95.5752 141.134 96.8457C138.067 98.1161 134.78 98.77 131.46 98.77L110.59 98.8Z" fill="#233B8E"/>
<path d="M74.1 129.21H81.78L41.84 37.21L0 129.21H7.72L15.28 112.6H66.92L74.1 129.21ZM18.44 105.58L41.67 54.5L63.84 105.58H18.44Z" fill="#233B8E"/>
</svg>
