<svg xmlns="http://www.w3.org/2000/svg" width="386.026" height="98.591" viewBox="0 0 386.026 98.591">
  <g id="Grupo_310" data-name="Grupo 310" transform="translate(0 0)">
    <g id="Grupo_298" data-name="Grupo 298" transform="translate(122.044 12.207)">
      <path id="Trazado_83510" data-name="Trazado 83510" d="M356.076,249.233v-4.748H333.9V278.1h22.178v-4.748H339.432V262.779h14.514v-4.748H339.432v-8.8Z" transform="translate(-302.669 -244.369)" fill="#003a7f" fill-rule="evenodd"/>
      <path id="Trazado_83511" data-name="Trazado 83511" d="M451.089,273.274h-16.6V244.29h-5.533v28.537a5.07,5.07,0,0,0,1.483,3.684,5.4,5.4,0,0,0,4.051,1.512h16.6a5.718,5.718,0,0,0,4.052-1.465,5.048,5.048,0,0,0,1.527-3.73V244.29h-5.58Z" transform="translate(-337.07 -244.29)" fill="#003a7f" fill-rule="evenodd"/>
      <path id="Trazado_83512" data-name="Trazado 83512" d="M508.527,278.1h-6.393l-14.445-15.32h-1.34V278.1h-5.527V244.485H502.04a5.337,5.337,0,0,1,3.913,1.556,4.8,4.8,0,0,1,1.619,3.64v7.9q0,5.195-5.532,5.2h-7.767Zm-6.487-20.062v-8.805H486.349v8.805Z" transform="translate(-355.84 -244.369)" fill="#003a7f" fill-rule="evenodd"/>
      <path id="Trazado_83513" data-name="Trazado 83513" d="M310.8,272.906a4.9,4.9,0,0,1-1.431,3.64,5.474,5.474,0,0,1-4.1,1.556H285.434v-4.749h19.841V262.779H290.538a5.921,5.921,0,0,1-3.527-1.022,4.657,4.657,0,0,1-1.863-2.752,5.344,5.344,0,0,1-.191-1.422v-7.9a4.918,4.918,0,0,1,1.574-3.6,5.389,5.389,0,0,1,4.007-1.6H308.9v4.748H290.491v8.8h14.785a5.475,5.475,0,0,1,3.951,1.509,4.905,4.905,0,0,1,1.576,3.687Z" transform="translate(-284.957 -244.369)" fill="#003a7f" fill-rule="evenodd"/>
      <path id="Trazado_83514" data-name="Trazado 83514" d="M608.907,272.906a4.906,4.906,0,0,1-1.433,3.64,5.48,5.48,0,0,1-4.1,1.556H583.541v-4.749h19.835V262.779h-14.74a5.926,5.926,0,0,1-3.526-1.022,4.705,4.705,0,0,1-1.864-2.752,5.49,5.49,0,0,1-.187-1.422v-7.9a4.9,4.9,0,0,1,1.572-3.6,5.394,5.394,0,0,1,4-1.6h18.358v4.748h-18.4v8.8h14.782a5.483,5.483,0,0,1,3.954,1.509,4.925,4.925,0,0,1,1.577,3.687Z" transform="translate(-392.84 -244.369)" fill="#003a7f" fill-rule="evenodd"/>
      <path id="Trazado_83515" data-name="Trazado 83515" d="M558.9,272.9q0,5.2-5.531,5.2H536.727q-4.439,0-5.343-3.464a7.2,7.2,0,0,1-.191-1.733V249.666a4.907,4.907,0,0,1,1.574-3.6,5.315,5.315,0,0,1,3.959-1.6h16.644a5.331,5.331,0,0,1,3.907,1.554,4.786,4.786,0,0,1,1.624,3.642Zm-5.531.449V249.227H536.727v24.119Z" transform="translate(-374.07 -244.363)" fill="#003a7f" fill-rule="evenodd"/>
      <path id="Trazado_83516" data-name="Trazado 83516" d="M404.808,278.091H382.626q-4.44,0-5.347-3.466a7.622,7.622,0,0,1-.187-1.732V249.657a4.912,4.912,0,0,1,1.574-3.6,5.324,5.324,0,0,1,3.959-1.6H403.9v4.722H382.626v24.188h16.65V262.758H388.2v-4.721h16.605Z" transform="translate(-318.301 -244.359)" fill="#003a7f" fill-rule="evenodd"/>
    </g>
    <g id="Grupo_301" data-name="Grupo 301" transform="translate(122.538 52.537)">
      <path id="Trazado_83517" data-name="Trazado 83517" d="M366.108,346.117H362.1L343.708,322.7v23.416h-5.587V312.159h3.96l18.441,23.418V312.159h5.586Z" transform="translate(-304.69 -312.159)" fill="#003a7f" fill-rule="evenodd"/>
      <rect id="Rectángulo_1164" data-name="Rectángulo 1164" width="5.588" height="33.958" transform="translate(66.858 0)" fill="#003a7f"/>
      <path id="Trazado_83518" data-name="Trazado 83518" d="M432.7,312.159l-11.175,33.958H415.89l-11.177-33.958h5.343l8.675,26.28,8.627-26.28Z" transform="translate(-328.79 -312.159)" fill="#003a7f" fill-rule="evenodd"/>
      <path id="Trazado_83519" data-name="Trazado 83519" d="M524.531,346.117h-6.456l-14.6-15.475h-1.348v15.475h-5.589V312.159H517.98a5.393,5.393,0,0,1,3.95,1.572,4.845,4.845,0,0,1,1.638,3.677v7.985q0,5.247-5.589,5.249h-7.847Zm-6.551-20.267v-8.9H502.132v8.9Z" transform="translate(-362.023 -312.159)" fill="#003a7f" fill-rule="evenodd"/>
      <path id="Trazado_83520" data-name="Trazado 83520" d="M573.575,340.869a4.96,4.96,0,0,1-1.443,3.676,5.539,5.539,0,0,1-4.144,1.572H547.949v-4.8h20.039V330.639H553.1a5.984,5.984,0,0,1-3.566-1.033,4.707,4.707,0,0,1-1.878-2.78,5.237,5.237,0,0,1-.191-1.436v-7.983a4.964,4.964,0,0,1,1.586-3.633,5.445,5.445,0,0,1,4.048-1.616h18.545v4.8h-18.59v8.887h14.93a5.551,5.551,0,0,1,4,1.525,4.966,4.966,0,0,1,1.589,3.724Z" transform="translate(-380.453 -312.159)" fill="#003a7f" fill-rule="evenodd"/>
      <path id="Trazado_83521" data-name="Trazado 83521" d="M624.894,346.117H619.3V330.642h-16.81v15.475h-5.589V317.408a5.114,5.114,0,0,1,1.5-3.723,5.56,5.56,0,0,1,4.093-1.526H619.3a5.448,5.448,0,0,1,3.807,1.7,4.833,4.833,0,0,1,1.782,3.544Zm-5.59-20.275v-8.887h-16.81v8.887Z" transform="translate(-398.344 -312.159)" fill="#003a7f" fill-rule="evenodd"/>
      <g id="Grupo_300" data-name="Grupo 300" transform="translate(231.99 0)">
        <path id="Trazado_83522" data-name="Trazado 83522" d="M671.693,346.117h-22.4V312.159h5.589v29.163h16.81Z" transform="translate(-649.293 -312.159)" fill="#003a7f" fill-rule="evenodd"/>
        <g id="Grupo_299" data-name="Grupo 299" transform="translate(25.793 28.607)">
          <path id="Trazado_83523" data-name="Trazado 83523" d="M692.567,365.742a2.724,2.724,0,1,1,2.853-2.715A2.663,2.663,0,0,1,692.567,365.742Zm0-5.173a2.453,2.453,0,1,0,2.526,2.458A2.36,2.36,0,0,0,692.567,360.569Zm.855,3.9-.968-1.288H692.1v1.252h-.465v-3.019h.88c.678,0,1.118.327,1.118.877a.84.84,0,0,1-.679.831l.956,1.241Zm-.918-2.657h-.414v1.018h.4c.414,0,.68-.176.68-.516S692.932,361.809,692.5,361.809Z" transform="translate(-689.715 -360.3)" fill="#003a7f"/>
        </g>
      </g>
      <path id="Trazado_83524" data-name="Trazado 83524" d="M476.377,316.955v-4.8h-22.4v33.958h22.4v-4.8h-16.81V330.64h14.661v-4.8H459.567v-8.887Z" transform="translate(-346.619 -312.159)" fill="#003a7f" fill-rule="evenodd"/>
      <path id="Trazado_83525" data-name="Trazado 83525" d="M308.084,341.321H291.32V317.356l-5.581-5.2h-.009v28.71a5.111,5.111,0,0,0,1.5,3.722,5.458,5.458,0,0,0,4.094,1.527h16.764a5.773,5.773,0,0,0,4.094-1.48,5.093,5.093,0,0,0,1.542-3.768v-28.71h-5.636Z" transform="translate(-285.73 -312.159)" fill="#003a7f" fill-rule="evenodd"/>
    </g>
    <g id="Grupo_302" data-name="Grupo 302" transform="translate(54.095 17.474)">
      <path id="Trazado_83526" data-name="Trazado 83526" d="M215.223,278.62h-29.18l-6.821,6.353h36c.308,0,.607-.02.9-.049a7.079,7.079,0,0,0,3.98-1.648,5.4,5.4,0,0,0,1.581-2.234,6.11,6.11,0,0,0,.322-1.225,7.576,7.576,0,0,0,.1-1.2V259.561a6.062,6.062,0,0,0-1.939-4.653,7.224,7.224,0,0,0-4.94-1.754h-8.171a6.068,6.068,0,0,1,.473,2.355c0,.1,0,.21-.008.315a7.041,7.041,0,0,1-1.284,3.738h8.99Z" transform="translate(-178.743 -253.153)" fill="#1a4e90"/>
      <path id="Trazado_83527" data-name="Trazado 83527" d="M178.471,259.561h14.844l4.151-3.865-2.73-2.542H178.471Z" transform="translate(-178.471 -253.153)" fill="#1a4e90"/>
    </g>
    <g id="Grupo_303" data-name="Grupo 303" transform="translate(29.595 0)">
      <path id="Trazado_83528" data-name="Trazado 83528" d="M196.55,243.767l-20.633,19.214v8.985l25.456-23.707a8,8,0,0,0,.6-.628,6.117,6.117,0,0,0,1.563-3.786,5.1,5.1,0,0,0-.579-2.621,6.39,6.39,0,0,0-.7-1.079,8.33,8.33,0,0,0-.839-.909L186.943,225.76a6.993,6.993,0,0,0-4.905-2.013,7.172,7.172,0,0,0-4.825,2.012l-5.778,5.381a6.972,6.972,0,0,1,2.123,1.353c.08.074.158.15.234.228a7.212,7.212,0,0,1,1.929,3.489l6.357-5.92Z" transform="translate(-151.424 -223.747)" fill="#335b9a"/>
      <path id="Trazado_83529" data-name="Trazado 83529" d="M155.437,255V249.53h-3.861l-11.5,10.71,4.866,4.531Z" transform="translate(-140.074 -234.209)" fill="#335b9a"/>
    </g>
    <g id="Grupo_304" data-name="Grupo 304" transform="translate(18.768 7.835)">
      <path id="Trazado_83530" data-name="Trazado 83530" d="M129.988,292.807V278.983l-4.151-3.865-2.73,2.542v15.147Z" transform="translate(-123.107 -252.427)" fill="#4868a4"/>
      <path id="Trazado_83531" data-name="Trazado 83531" d="M150.454,243.34v27.173l6.822,6.353V243.34a7.325,7.325,0,0,0-.053-.838,6.167,6.167,0,0,0-1.769-3.707,5.867,5.867,0,0,0-2.4-1.472,7.417,7.417,0,0,0-1.316-.3,9.445,9.445,0,0,0-1.284-.09H129.988a7.027,7.027,0,0,0-5,1.807,6.213,6.213,0,0,0-1.884,4.6v7.609a7.375,7.375,0,0,1,2.529-.441c.112,0,.226,0,.339.007a8.334,8.334,0,0,1,4.013,1.2V243.34Z" transform="translate(-123.107 -236.933)" fill="#4868a4"/>
    </g>
    <path id="Trazado_83532" data-name="Trazado 83532" d="M176.655,308.963v33.525a7.17,7.17,0,0,0,.053.838,6.161,6.161,0,0,0,1.77,3.707,5.854,5.854,0,0,0,2.4,1.472,7.392,7.392,0,0,0,1.316.3,9.425,9.425,0,0,0,1.284.09h20.466a7.029,7.029,0,0,0,5-1.807,6.211,6.211,0,0,0,1.883-4.6V308.516h-6.88v33.972H183.477V315.315Z" transform="translate(-123.718 -258.144)" fill="#003a7f"/>
    <g id="Grupo_305" data-name="Grupo 305" transform="translate(0 22.491)">
      <path id="Trazado_83533" data-name="Trazado 83533" d="M115.194,268.107l20.632,19.214h9.647l-25.457-23.706a8.274,8.274,0,0,0-.673-.557,7.126,7.126,0,0,0-4.067-1.456,6.175,6.175,0,0,0-2.815.539,7.072,7.072,0,0,0-1.158.654,8.6,8.6,0,0,0-.977.782L95.857,277.054a6.1,6.1,0,0,0-2.162,4.568,6.258,6.258,0,0,0,2.161,4.493l5.778,5.381a6.433,6.433,0,0,1,1.453-1.976c.08-.074.161-.147.245-.218a8.139,8.139,0,0,1,3.746-1.8l-6.357-5.92Z" transform="translate(-93.695 -261.596)" fill="#5d78b0"/>
      <path id="Trazado_83534" data-name="Trazado 83534" d="M135.851,328.982l-10.5-9.775h-5.87v3.6l11.5,10.71Z" transform="translate(-103.028 -284.973)" fill="#5d78b0"/>
    </g>
    <g id="Grupo_306" data-name="Grupo 306" transform="translate(8.418 49.294)">
      <path id="Trazado_83535" data-name="Trazado 83535" d="M113.767,313.054h29.178l6.823-6.353h-36a8.878,8.878,0,0,0-.9.049,7.079,7.079,0,0,0-3.981,1.649,5.388,5.388,0,0,0-1.581,2.234,6.115,6.115,0,0,0-.322,1.225,7.66,7.66,0,0,0-.1,1.2v19.059a6.062,6.062,0,0,0,1.94,4.654,7.221,7.221,0,0,0,4.939,1.753h8.172a6.042,6.042,0,0,1-.474-2.354q0-.157.008-.316a7.029,7.029,0,0,1,1.285-3.737h-8.99Z" transform="translate(-106.888 -306.701)" fill="#758cbd"/>
      <path id="Trazado_83536" data-name="Trazado 83536" d="M163.778,349.465H149.223l-4.151,3.865,2.729,2.542h15.976Z" transform="translate(-120.707 -324.053)" fill="#758cbd"/>
    </g>
    <g id="Grupo_307" data-name="Grupo 307" transform="translate(24.155 50.372)">
      <path id="Trazado_83537" data-name="Trazado 83537" d="M138.542,336.715,159.175,317.5v-8.985l-25.456,23.706a7.943,7.943,0,0,0-.6.627,6.116,6.116,0,0,0-1.563,3.787,5.1,5.1,0,0,0,.579,2.62,6.476,6.476,0,0,0,.7,1.079,8.336,8.336,0,0,0,.84.909l14.471,13.477a7,7,0,0,0,4.906,2.013,7.171,7.171,0,0,0,4.824-2.013l5.778-5.38a6.964,6.964,0,0,1-2.122-1.354c-.08-.074-.158-.15-.234-.228a7.221,7.221,0,0,1-1.93-3.489l-6.357,5.919Z" transform="translate(-131.55 -308.516)" fill="#8fa1ca"/>
      <path id="Trazado_83538" data-name="Trazado 83538" d="M199.643,338.248l-10.481,9.76v5.466h3.86l11.486-10.7Z" transform="translate(-152.4 -320.58)" fill="#8fa1ca"/>
    </g>
    <g id="Grupo_308" data-name="Grupo 308" transform="translate(54.095 27.557)">
      <path id="Trazado_83539" data-name="Trazado 83539" d="M178.471,308.516h9.648l15.324,14.271v8.984Z" transform="translate(-178.471 -285.7)" fill="#004487"/>
      <path id="Trazado_83540" data-name="Trazado 83540" d="M208.178,274.651l10.5,9.775h5.87v-3.6l-11.5-10.71Z" transform="translate(-189.222 -270.121)" fill="#004487"/>
      <path id="Trazado_83541" data-name="Trazado 83541" d="M247.484,306.87l-5.777-5.381a6.456,6.456,0,0,1-1.454,1.977c-.08.074-.161.147-.244.218a8.15,8.15,0,0,1-3.746,1.8l6.356,5.92-10.552,9.828v8.939a8.808,8.808,0,0,0,.946-.759l14.471-13.477a6.092,6.092,0,0,0,2.162-4.568A6.261,6.261,0,0,0,247.484,306.87Z" transform="translate(-197.867 -282.849)" fill="#004487"/>
    </g>
  </g>
</svg>
